<svg width="189" height="197" viewBox="0 0 189 197" fill="none" xmlns="http://www.w3.org/2000/svg">
<g filter="url(#filter0_dd_1_11)">
<path d="M93.91 41.4443C82.6959 38.1181 77.8333 46.0773 76.8038 50.4726C69.5165 43.0435 61.8729 44.2193 58.962 45.7358C43.5365 53.7992 52.5347 73.6362 58.962 82.5468C46.867 101.478 56.4057 117.938 62.687 123.802C73.5718 137.904 100.599 140.062 104.686 131.072C109.026 129.903 112.789 125.738 114.127 123.802C137.614 120.79 142.021 101.91 135.131 94.6638C129.619 88.8667 120.401 93.0403 116.481 95.8517C116.639 95.2973 116.386 92.5968 114.105 86.2295C111.824 79.8621 105.631 77.5575 102.82 77.2012C103.334 75.2609 104.483 70.4774 104.958 66.8661C105.552 62.352 107.928 45.6021 93.91 41.4443Z" fill="white"/>
</g>
<path d="M75.4614 77.7328C71.3478 80.6275 66.9367 80.2332 64.4919 75.9046C62.778 72.3832 62.0569 69.9426 59.7689 64.9351C57.4992 59.9676 58.5501 53.6609 62.5113 52.2897C66.4725 50.9185 69.9766 54.118 73.9378 60.2121C77.899 66.3063 79.5749 74.8381 75.4614 77.7328Z" fill="black"/>
<path d="M96.8801 66.0739C98.2565 55.4754 93.5767 49.0749 88.6903 48.7308C86.3504 48.7308 83.391 52.516 82.9781 58.0218C82.5652 63.5275 83.9416 63.1834 84.4234 67.8633C84.9051 76.5349 82.9781 78.6683 88.2774 80.5265C93.5767 82.3847 95.5037 76.6725 96.8801 66.0739Z" fill="black"/>
<path d="M107.961 94.9626C107.292 82.025 93.8338 81.802 93.0159 84.9992C92.4954 86.3376 93.9081 85.9658 97.1053 89.7579C100.303 93.5499 98.7411 100.985 96.7336 101.878C94.726 102.77 91.8262 105.967 97.6258 109.164C103.425 112.362 108.63 107.9 107.961 94.9626Z" fill="black"/>
<path d="M128.037 108.718C124.319 114.369 109.969 118.533 107.961 113.179C106.325 109.685 118.371 101.878 124.839 100.539C131.308 99.2008 131.754 103.067 128.037 108.718Z" fill="black"/>
<path d="M72.8026 96.6258C73.3713 93.1002 76.7264 94.4649 79.7402 95.716C82.4979 96.8936 88.5492 98.8405 90.6933 97.2068C93.3735 95.1648 95.4794 90.8254 84.4395 85.465C73.3997 80.1046 62.1683 84.1249 61.0197 99.9508C59.871 115.777 69.0612 118.55 70.2437 120.623C72.1203 125.286 83.0953 127.276 89.4642 128.641C95.8332 130.006 99.0646 124.503 102.373 123.523C108.514 120.907 107.961 115.391 99.5863 113.856C91.2115 112.321 90.2035 107.317 89.123 105.156C88.0426 102.995 89.7486 100.891 85.3699 101.232C80.9913 101.573 72.234 100.151 72.8026 96.6258Z" fill="black"/>
<defs>
<filter id="filter0_dd_1_11" x="0.444805" y="0.652893" width="187.646" height="195.805" filterUnits="userSpaceOnUse" color-interpolation-filters="sRGB">
<feFlood flood-opacity="0" result="BackgroundImageFix"/>
<feColorMatrix in="SourceAlpha" type="matrix" values="0 0 0 0 0 0 0 0 0 0 0 0 0 0 0 0 0 0 127 0" result="hardAlpha"/>
<feOffset dy="10"/>
<feGaussianBlur stdDeviation="25"/>
<feComposite in2="hardAlpha" operator="out"/>
<feColorMatrix type="matrix" values="0 0 0 0 0 0 0 0 0 0 0 0 0 0 0 0 0 0 0.12 0"/>
<feBlend mode="normal" in2="BackgroundImageFix" result="effect1_dropShadow_1_11"/>
<feColorMatrix in="SourceAlpha" type="matrix" values="0 0 0 0 0 0 0 0 0 0 0 0 0 0 0 0 0 0 127 0" result="hardAlpha"/>
<feOffset dy="10"/>
<feGaussianBlur stdDeviation="25"/>
<feComposite in2="hardAlpha" operator="out"/>
<feColorMatrix type="matrix" values="0 0 0 0 0 0 0 0 0 0 0 0 0 0 0 0 0 0 0.06 0"/>
<feBlend mode="normal" in2="effect1_dropShadow_1_11" result="effect2_dropShadow_1_11"/>
<feBlend mode="normal" in="SourceGraphic" in2="effect2_dropShadow_1_11" result="shape"/>
</filter>
</defs>
</svg>
