<svg width="201" height="82" viewBox="0 0 201 82" fill="none" xmlns="http://www.w3.org/2000/svg">
<path d="M180.6 55.989C179.887 55.8073 179.307 55.4777 178.859 55.0003C178.42 54.5171 178.136 53.9162 178.005 53.1977C177.875 52.4792 177.923 51.6742 178.15 50.7827C178.377 49.8912 178.72 49.1612 179.179 48.5929C179.64 48.0168 180.178 47.6215 180.794 47.407C181.418 47.1945 182.086 47.1791 182.799 47.3609C183.737 47.5999 184.412 48.0483 184.822 48.706C185.234 49.356 185.415 50.1368 185.364 51.0485L184.736 50.9379C184.794 50.1931 184.651 49.5541 184.308 49.0209C183.965 48.4877 183.414 48.1243 182.654 47.9307C182.065 47.7805 181.51 47.8041 180.989 48.0016C180.47 48.1913 180.019 48.5346 179.637 49.0316C179.254 49.5285 178.964 50.1645 178.767 50.9397C178.569 51.715 178.519 52.4123 178.617 53.0317C178.717 53.6433 178.95 54.1566 179.315 54.5716C179.679 54.9865 180.156 55.2691 180.746 55.4193C181.544 55.6228 182.232 55.5629 182.81 55.2395C183.39 54.9084 183.83 54.3643 184.13 53.607L184.734 53.8106C184.476 54.405 184.144 54.8944 183.741 55.2787C183.34 55.6552 182.871 55.9073 182.335 56.0348C181.806 56.1643 181.228 56.1491 180.6 55.989Z" fill="#0E142A"/>
<path d="M186.413 57.2723C186.087 57.1893 185.852 57.0427 185.708 56.8325C185.565 56.6146 185.537 56.335 185.624 55.9939L187.47 48.7495L188.029 48.8918L186.188 56.1129C186.145 56.2835 186.158 56.4271 186.227 56.5439C186.304 56.6626 186.436 56.7456 186.622 56.793L187.04 56.8997L186.913 57.3998L186.413 57.2723Z" fill="#0E142A"/>
<path d="M190.114 58.3641C189.501 58.208 189.061 57.8771 188.794 57.3714C188.536 56.8599 188.5 56.2398 188.686 55.5111L189.696 51.5459L190.255 51.6881L189.291 55.4673C189.122 56.134 189.13 56.6686 189.316 57.0711C189.51 57.4756 189.871 57.745 190.398 57.8793C190.972 58.0256 191.473 57.9551 191.901 57.6679C192.339 57.375 192.64 56.9068 192.804 56.2634L193.743 52.5772L194.301 52.7195L192.731 58.8825L192.219 58.7521L192.611 57.1182L192.698 57.1652C192.472 57.6938 192.13 58.0648 191.671 58.2781C191.222 58.4856 190.703 58.5142 190.114 58.3641Z" fill="#0E142A"/>
<path d="M197.088 60.1417C196.592 60.0153 196.197 59.7661 195.904 59.3941C195.613 59.0144 195.432 58.5887 195.363 58.1169L194.984 59.4568L194.519 59.3383L196.623 51.0822L197.181 51.2245L196.319 54.6083C196.584 54.2467 196.93 53.9757 197.356 53.7952C197.791 53.609 198.249 53.5771 198.73 53.6996C199.265 53.836 199.692 54.0892 200.01 54.4593C200.331 54.8217 200.534 55.2698 200.621 55.8038C200.708 56.3378 200.668 56.9304 200.502 57.5816C200.334 58.2405 200.084 58.7836 199.753 59.2109C199.421 59.6382 199.028 59.9342 198.573 60.099C198.118 60.2638 197.623 60.278 197.088 60.1417ZM197.204 59.5892C197.832 59.7493 198.39 59.6354 198.876 59.2476C199.363 58.8599 199.711 58.2551 199.921 57.4334C200.13 56.6116 200.114 55.914 199.872 55.3405C199.63 54.767 199.199 54.4013 198.579 54.2432C198.168 54.1385 197.779 54.159 197.412 54.3048C197.052 54.4526 196.736 54.7063 196.462 55.0659C196.199 55.4198 195.999 55.8642 195.863 56.3991C195.726 56.934 195.688 57.4237 195.748 57.8683C195.818 58.3072 195.975 58.6775 196.22 58.9794C196.473 59.2832 196.801 59.4865 197.204 59.5892Z" fill="#0E142A"/>
<path d="M14.4101 35.1061C14.1373 36.1764 13.0485 36.823 11.9781 36.5502L2.27089 34.0761C1.20053 33.8033 0.553985 32.7145 0.82678 31.6441L3.30059 21.9378C3.57338 20.8675 4.66222 20.2209 5.73257 20.4937L17.3779 23.4617L14.4101 35.1061Z" fill="#0E142A"/>
<path d="M41.5759 42.0297C41.3031 43.1 40.2143 43.7466 39.1439 43.4738L29.4366 40.9997C28.3663 40.727 27.7197 39.6381 27.9925 38.5678L30.9603 26.9234L44.5436 30.3853L41.5759 42.0297Z" fill="#0E142A"/>
<path d="M30.9603 26.9234L17.3779 23.4617L20.3459 11.8164C20.6187 10.746 21.7075 10.0995 22.7779 10.3723L34.4222 13.34L30.9603 26.9234Z" fill="#0E142A"/>
<path d="M58.6209 31.9092C58.3481 32.9796 57.2593 33.6261 56.189 33.3533L44.5436 30.3853L48.0056 16.802L59.6509 19.77C60.7212 20.0428 61.3678 21.1316 61.095 22.2019L58.6209 31.9092Z" fill="#0E142A"/>
<path d="M48.0056 16.802L34.4222 13.34L37.3902 1.69473C37.663 0.624378 38.7518 -0.02217 39.8222 0.250626L49.5295 2.72467C50.5998 2.99747 51.2464 4.08631 50.9736 5.15666L48.0056 16.802Z" fill="#0E142A"/>
<path d="M73.1886 24.2875L72.9231 8.8332L76.6064 9.77193L76.4938 19.9071L81.2868 10.9648L84.2171 11.7116L84.1656 21.8624L88.8975 12.9045L92.5604 13.8381L84.9709 27.2904L81.2673 26.3465L81.2583 17.1989L76.8719 25.2262L73.1886 24.2875Z" fill="#0E142A"/>
<path d="M90.4203 28.6793L94.1026 14.2311L104.481 16.8762L103.744 19.7658L96.907 18.0232L96.1757 20.8925L102.769 22.5729L102.032 25.4625L95.4392 23.7821L94.6976 26.6921L101.698 28.4762L100.961 31.3658L90.4203 28.6793Z" fill="#0E142A"/>
<path d="M102.181 31.6766L111.073 18.5562L115.183 19.6039L116.71 35.3797L113.068 34.4513L112.827 31.4859L107.454 30.1167L105.803 32.5998L102.181 31.6766ZM109.127 27.5523L112.586 28.4339L112.173 22.9109L109.127 27.5523Z" fill="#0E142A"/>
<path d="M118.103 35.7346L121.785 21.2864L125.326 22.1889L121.856 35.8027L120.386 33.2391L128.851 35.3966L128.115 38.2863L118.103 35.7346Z" fill="#0E142A"/>
<path d="M130.715 38.9489L133.661 27.3904L129.387 26.3013L130.124 23.4117L142.232 26.4976L141.495 29.3872L137.222 28.2981L134.276 39.8566L130.715 38.9489Z" fill="#0E142A"/>
<path d="M139.843 41.2755L143.526 26.8273L147.066 27.7298L145.334 34.5265L144.083 33.059L152.019 35.0817L150.218 35.7712L151.95 28.9745L155.491 29.8769L151.809 44.3251L148.268 43.4226L150.021 36.5445L151.278 37.9917L143.341 35.969L145.137 35.2998L143.384 42.1779L139.843 41.2755Z" fill="#0E142A"/>
<path d="M63.2238 49.6109L66.9061 35.1628L70.4469 36.0652L66.7646 50.5133L63.2238 49.6109Z" fill="#0E142A"/>
<path d="M69.2849 51.1557L72.9672 36.7076L76.6912 37.6567L79.6741 48.0606L81.9821 39.0051L85.5229 39.9076L81.8405 54.3557L78.0962 53.4014L75.0351 43.3892L72.8257 52.0581L69.2849 51.1557Z" fill="#0E142A"/>
<path d="M84.3682 54.9999L88.0505 40.5518L91.7745 41.5009L94.7574 51.9048L97.0653 42.8493L100.606 43.7518L96.9238 58.1999L93.1795 57.2456L90.1184 47.2334L87.909 55.9023L84.3682 54.9999Z" fill="#0E142A"/>
<path d="M105.903 60.8351C104.411 60.4548 103.2 59.8211 102.27 58.934C101.354 58.0503 100.754 56.9729 100.472 55.7017C100.189 54.4305 100.244 53.0216 100.639 51.475C101.033 49.9285 101.658 48.6648 102.515 47.684C103.375 46.6896 104.419 46.0238 105.646 45.6865C106.891 45.339 108.259 45.3555 109.751 45.7358C111.257 46.1196 112.46 46.7584 113.359 47.6521C114.275 48.5357 114.873 49.62 115.152 50.9047C115.448 52.1794 115.4 53.59 115.005 55.1366C114.611 56.6832 113.979 57.9451 113.109 58.9224C112.252 59.9032 111.21 60.5623 109.982 60.8996C108.769 61.2404 107.409 61.2189 105.903 60.8351ZM106.639 57.9455C107.386 58.1357 108.063 58.1133 108.672 57.8784C109.294 57.6469 109.836 57.2216 110.298 56.6023C110.759 55.983 111.114 55.185 111.363 54.2082C111.612 53.2315 111.682 52.3608 111.573 51.5963C111.468 50.8183 111.198 50.1787 110.762 49.6776C110.33 49.1628 109.741 48.8104 108.994 48.6202C108.262 48.4335 107.583 48.4627 106.957 48.7077C106.334 48.9391 105.791 49.3713 105.326 50.0041C104.878 50.6269 104.53 51.4266 104.281 52.4034C104.032 53.3802 103.955 54.2491 104.05 55.0101C104.159 55.7746 104.431 56.4074 104.867 56.9085C105.302 57.4097 105.893 57.7553 106.639 57.9455Z" fill="#0E142A"/>
<path d="M118.469 63.691L116.921 47.9099L120.564 48.8383L121.541 60.2263L127.829 50.6898L131.471 51.6182L122.539 64.7282L118.469 63.691Z" fill="#0E142A"/>
<path d="M126.136 65.6451L135.028 52.5247L139.139 53.5724L140.666 69.3482L137.023 68.4199L136.782 65.4545L131.41 64.0852L129.758 66.5683L126.136 65.6451ZM133.082 61.5208L136.541 62.4025L136.129 56.8794L133.082 61.5208Z" fill="#0E142A"/>
<path d="M143.422 70.0508L146.368 58.4923L142.095 57.4031L142.831 54.5135L154.939 57.5994L154.203 60.489L149.929 59.3999L146.984 70.9584L143.422 70.0508Z" fill="#0E142A"/>
<path d="M158.585 74.262C157.093 73.8816 155.882 73.2479 154.952 72.3608C154.036 71.4772 153.436 70.3998 153.154 69.1285C152.871 67.8573 152.927 66.4484 153.321 64.9019C153.715 63.3553 154.34 62.0916 155.197 61.1109C156.057 60.1165 157.101 59.4507 158.328 59.1133C159.573 58.7659 160.941 58.7823 162.433 59.1627C163.939 59.5465 165.142 60.1852 166.041 61.079C166.957 61.9626 167.555 63.0468 167.834 64.3316C168.131 65.6063 168.082 67.0169 167.687 68.5635C167.293 70.11 166.661 71.372 165.791 72.3493C164.934 73.3301 163.892 73.9891 162.665 74.3265C161.451 74.6673 160.091 74.6458 158.585 74.262ZM159.322 71.3723C160.068 71.5625 160.745 71.5401 161.354 71.3052C161.977 71.0738 162.518 70.6484 162.98 70.0292C163.441 69.4099 163.796 68.6119 164.045 67.6351C164.294 66.6583 164.364 65.7877 164.255 65.0232C164.15 64.2451 163.88 63.6055 163.444 63.1044C163.012 62.5897 162.423 62.2373 161.677 62.0471C160.944 61.8604 160.265 61.8895 159.639 62.1346C159.016 62.366 158.473 62.7981 158.008 63.431C157.561 64.0537 157.212 64.8535 156.963 65.8302C156.714 66.807 156.637 67.6759 156.732 68.4369C156.841 69.2014 157.113 69.8343 157.549 70.3354C157.985 70.8365 158.575 71.1822 159.322 71.3723Z" fill="#0E142A"/>
<path d="M167.733 76.2468L171.416 61.7987L178.029 63.4843C179.101 63.7574 179.985 64.1706 180.682 64.7239C181.393 65.2806 181.882 65.9399 182.15 66.7017C182.422 67.45 182.447 68.2582 182.226 69.1265C182.053 69.8048 181.765 70.3671 181.363 70.8135C180.96 71.2599 180.471 71.5904 179.896 71.8051C179.338 72.0097 178.713 72.0815 178.021 72.0206L178.012 71.8016C179.002 72.054 179.695 72.4544 180.089 73.0029C180.498 73.5548 180.622 74.2583 180.462 75.1132L179.76 79.312L176.138 78.3888L176.811 74.8113C176.909 74.2583 176.848 73.8166 176.629 73.4862C176.423 73.1593 175.974 72.9077 175.283 72.7313L172.576 72.0415L171.274 77.1493L167.733 76.2468ZM173.313 69.1519L175.836 69.795C176.555 69.9783 177.144 69.9623 177.603 69.7471C178.063 69.5319 178.365 69.1394 178.51 68.5696C178.659 67.9862 178.575 67.4952 178.257 67.0965C177.954 66.7012 177.435 66.4102 176.703 66.2235L174.22 65.5908L173.313 69.1519Z" fill="#0E142A"/>
<path d="M187.683 81.6779C186.394 81.3495 185.342 80.8574 184.526 80.2017C183.725 79.5495 183.163 78.7778 182.841 77.8867C182.536 76.9855 182.483 76.004 182.681 74.9421L186.264 75.6817C186.2 76.2145 186.237 76.6935 186.374 77.1185C186.511 77.5436 186.746 77.8995 187.077 78.1863C187.422 78.4765 187.88 78.6942 188.449 78.8394C188.911 78.9569 189.311 79.0012 189.651 78.9722C190.004 78.9467 190.29 78.8461 190.508 78.6705C190.74 78.4984 190.897 78.2496 190.98 77.924C191.056 77.6255 191.047 77.3487 190.953 77.0936C190.876 76.8284 190.65 76.5541 190.274 76.2705C189.916 75.9769 189.345 75.6364 188.563 75.2491C187.357 74.6528 186.405 74.078 185.708 73.5247C185.028 72.9613 184.574 72.3616 184.346 71.7256C184.135 71.0795 184.139 70.3291 184.357 69.4744C184.581 68.5926 185.002 67.8764 185.619 67.3258C186.236 66.7751 187.012 66.4238 187.947 66.2719C188.885 66.1064 189.937 66.1723 191.104 66.4697C192.352 66.7878 193.341 67.2711 194.071 67.9196C194.819 68.558 195.335 69.3107 195.62 70.1779C195.904 71.0451 195.97 71.9791 195.816 72.9801L192.274 72.2509C192.354 71.7657 192.329 71.3258 192.199 70.9313C192.082 70.5403 191.864 70.2032 191.546 69.9199C191.242 69.6401 190.839 69.4362 190.337 69.3083C189.713 69.1492 189.183 69.1587 188.748 69.3366C188.326 69.5181 188.059 69.8258 187.949 70.26C187.862 70.5991 187.873 70.898 187.98 71.1565C188.101 71.4185 188.338 71.6811 188.69 71.9441C189.045 72.1936 189.558 72.4761 190.229 72.7916C191.547 73.402 192.553 74.0195 193.246 74.6441C193.939 75.2686 194.383 75.909 194.577 76.5652C194.771 77.2215 194.773 77.9226 194.583 78.6688C194.347 79.5913 193.913 80.3329 193.279 80.8937C192.648 81.4409 191.852 81.787 190.89 81.932C189.946 82.0669 188.876 81.9822 187.683 81.6779Z" fill="#0E142A"/>
</svg>
